<svg version="1.2" xmlns="http://www.w3.org/2000/svg" viewBox="0 0 16 16" width="16" height="16"><style>.a{fill:#fff}</style><path fill-rule="evenodd" class="a" d="m4.6 0c0.6 0 1.1 0.4 1.1 0.9v0.8h4.6v-0.8c0-0.5 0.5-0.9 1.1-0.9 0.7 0 1.2 0.4 1.2 0.9v0.8h1.7c0.9 0 1.7 0.6 1.7 1.4v1.3h-16v-1.3c0-0.8 0.8-1.4 1.7-1.4h1.7v-0.8c0-0.5 0.5-0.9 1.2-0.9zm-4.6 5.3h16v7.4c0 0.7-0.8 1.3-1.7 1.3h-12.6c-0.9 0-1.7-0.6-1.7-1.3zm2.9 1.7c-0.4 0-0.6 0.2-0.6 0.5v1.7c0 0.3 0.2 0.5 0.6 0.5h10.2c0.4 0 0.6-0.2 0.6-0.5v-1.7c0-0.3-0.2-0.5-0.6-0.5z"/></svg>