<svg version="1.2" xmlns="http://www.w3.org/2000/svg" viewBox="0 0 16 16" width="16" height="16"><style>.a{fill:#fff}</style><path fill-rule="evenodd" class="a" d="m12.9 12.9c-1.3 1.4-3 2.1-4.9 2.1-1.9 0-3.6-0.7-4.9-2.1-1.4-1.3-2.1-3-2.1-4.9 0-1.9 0.7-3.6 2.1-4.9 1.3-1.4 3-2.1 4.9-2.1 1.9 0 3.6 0.7 4.9 2.1 1.4 1.3 2.1 3 2.1 4.9 0 1.9-0.7 3.6-2.1 4.9zm-4.9-0.5c1 0 1.8-0.8 1.8-1.8-0.1-0.7-0.5-1.3-1.1-1.6v-5.6c0-0.4-0.3-0.7-0.7-0.7-0.4 0-0.7 0.3-0.7 0.7v5.6c-0.6 0.3-1.1 0.9-1.1 1.6 0.1 1 0.8 1.8 1.8 1.8zm3.7-6.8q0.2-0.3 0.2-0.7 0-0.3-0.2-0.6-0.3-0.2-0.6-0.2-0.4 0-0.7 0.2-0.2 0.3-0.2 0.6 0 0.4 0.2 0.7 0.3 0.2 0.7 0.2 0.3 0 0.6-0.2zm0.1 3q0.2 0.3 0.6 0.3 0.3 0 0.6-0.3 0.2-0.2 0.2-0.6 0-0.4-0.2-0.6-0.3-0.3-0.6-0.3-0.4 0-0.6 0.3-0.3 0.2-0.3 0.6 0 0.4 0.3 0.6zm-7.6 0q0.3-0.2 0.3-0.6 0-0.4-0.3-0.6-0.2-0.3-0.6-0.3-0.3 0-0.6 0.3-0.2 0.2-0.3 0.6 0.1 0.4 0.3 0.6 0.3 0.3 0.6 0.3 0.4 0 0.6-0.3zm0.1-3q0.3 0.2 0.6 0.2 0.4 0 0.7-0.2 0.2-0.3 0.2-0.7 0-0.3-0.2-0.6-0.3-0.2-0.7-0.2-0.3 0-0.6 0.2-0.2 0.3-0.2 0.6 0 0.4 0.2 0.7z"/></svg>