<svg version="1.2" xmlns="http://www.w3.org/2000/svg" viewBox="0 0 16 16" width="16" height="16"><style>.a{fill:#fff}</style><path fill-rule="evenodd" class="a" d="m8 0.5c0.5 0 0.8 0.4 0.8 0.9v0.5c3.5 0.4 6.3 3.3 6.7 7 0 0.4-0.5 0.7-0.8 0.4-0.3-0.5-1-0.8-1.7-0.8-1 0-1.8 0.8-2 1.9-0.1 0.2-0.3 0.4-0.5 0.4-0.2 0-0.4-0.2-0.5-0.4-0.1-1.1-1-1.9-2-1.9-1 0-1.9 0.8-2 1.9-0.1 0.2-0.3 0.4-0.5 0.4-0.2 0-0.4-0.2-0.5-0.4-0.2-1.1-1-1.9-2-1.9-0.7 0-1.4 0.3-1.7 0.8-0.3 0.3-0.8 0-0.8-0.4 0.4-3.7 3.2-6.6 6.7-7v-0.5c0-0.5 0.3-0.9 0.8-0.9zm0 8.9q0.5 0 0.8 0.4v3.3c0 1.4-0.9 2.4-2.1 2.4-0.8 0-1.5-0.5-1.9-1.3l-0.1-0.1c-0.2-0.5 0-1.1 0.4-1.3 0.4-0.2 0.9 0 1.1 0.4l0.1 0.2c0.1 0.1 0.2 0.2 0.4 0.2 0.3 0 0.5-0.2 0.5-0.5v-3.3q0.3-0.4 0.8-0.4z"/></svg>