<svg version="1.2" xmlns="http://www.w3.org/2000/svg" viewBox="0 0 16 16" width="16" height="16"><style>.a{fill:#fff}.b{fill:none;stroke:#fff;stroke-linecap:round;stroke-miterlimit:100;stroke-width:2}</style>
<path class="a" d="m8.1 11.9c2.4 0 4.3 1.9 4.3 4.2 0 2.4-1.9 4.3-4.3 4.3-2.3 0-4.2-1.9-4.2-4.3 0-2.3 1.9-4.2 4.2-4.2zm5.6 2.9v2.4zm-11.4 2.3v-2.3zm6.9 4.5h-2.4zm-2.3-11.4l1.2-2.3 1.1 2.3zm-3.6 2.5l-0.9-2.5 2.5 0.9zm8-1.7l2.5-0.8-0.8 2.5z"/>
<path fill-rule="evenodd" class="b" d="m1.1 15.1l13.9-0.1"/>
<path class="a" d="m8.4 0.2c-0.3-0.3-0.7-0.3-0.9 0l-3.2 3.2c-0.3 0.2-0.3 0.7 0 0.9 0.2 0.3 0.6 0.3 0.9 0l2.1-2.1v4.4c0 0.4 0.3 0.6 0.6 0.6 0.4 0 0.7-0.2 0.7-0.6v-4.4l2.1 2.1c0.2 0.3 0.6 0.3 0.9 0 0.2-0.2 0.2-0.7 0-0.9z"/></svg>