<svg version="1.2" xmlns="http://www.w3.org/2000/svg" viewBox="0 0 16 16" width="16" height="16"><style>.a{fill:#fff}.b{fill:none;stroke:#fff;stroke-linecap:round;stroke-miterlimit:100}</style><path class="a" d="m8.1 11.9c2.4 0 4.3 1.9 4.3 4.2 0 2.4-1.9 4.3-4.3 4.3-2.3 0-4.2-1.9-4.2-4.3 0-2.3 1.9-4.2 4.2-4.2zm5.6 2.9v2.4zm-11.4 2.3v-2.3zm6.9 4.5h-2.4zm-2.3-11.4l1.2-2.3 1.1 2.3zm6.9 11.4zm-10.5-8.9l-0.9-2.5 2.5 0.9zm-0.8 8.8zm8.8-10.5l2.5-0.8-0.8 2.5z"/><path class="b" d="m1.1 15.1l13.9-0.1"/>


<path class="a" d="m7.5 7.1c0.2 0.2 0.6 0.2 0.9 0l3.2-3.3c0.2-0.2 0.2-0.6 0-0.9-0.3-0.2-0.7-0.2-0.9 0l-2.1 2.2v-4.5c0-0.3-0.3-0.6-0.7-0.6-0.3 0-0.6 0.3-0.6 0.6v4.5l-2.1-2.2c-0.3-0.2-0.7-0.2-0.9 0-0.3 0.3-0.3 0.7 0 0.9 0 0 3.2 3.3 3.2 3.3z"/></svg>