<svg version="1.2" xmlns="http://www.w3.org/2000/svg" viewBox="0 0 16 16" width="16" height="16"><style>.a{fill:#fff}</style><path fill-rule="evenodd" class="a" d="m11.5 5.5c-0.5-0.5-0.8-1.2-0.8-1.9 0.1-0.7 0.3-1.3 0.8-1.8 0.5-0.5 1.2-0.8 1.9-0.8 0.7 0 1.3 0.3 1.8 0.8 0.5 0.5 0.8 1.1 0.8 1.8 0 0.7-0.3 1.4-0.8 1.9-0.5 0.5-1.1 0.7-1.8 0.7-0.7 0-1.4-0.2-1.9-0.7zm1.3-2.5q-0.3 0.3-0.3 0.6 0 0.4 0.3 0.6 0.2 0.3 0.6 0.3 0.3 0 0.6-0.3 0.2-0.2 0.3-0.6-0.1-0.3-0.3-0.6-0.3-0.2-0.6-0.3-0.4 0.1-0.6 0.3zm-3.8 1.1v4.5q0 0 0 0 0 0 0.1 0.1c0.5 0.6 0.8 1.5 0.8 2.4 0 2.1-1.8 3.9-4 3.9-2.1 0-3.9-1.8-3.9-3.9 0-0.9 0.3-1.8 0.8-2.4q0.1-0.1 0.1-0.1 0 0 0 0v-4.5c0-1.7 1.3-3.1 3-3.1 1.7 0 3.1 1.4 3.1 3.1zm-4.4 4.5c0 0.4-0.2 0.8-0.4 1.1-0.3 0.4-0.5 0.9-0.5 1.4 0 1.2 1 2.1 2.2 2.1 1.2 0 2.2-0.9 2.2-2.1 0-0.5-0.1-1-0.4-1.4-0.3-0.3-0.5-0.7-0.5-1.1v-4.5c0-0.8-0.5-1.4-1.3-1.4-0.7 0-1.3 0.6-1.3 1.4zm0 2.5c0-0.6 0.4-1.1 0.9-1.3v-5.7c0-0.3 0.2-0.5 0.4-0.5 0.3 0 0.5 0.2 0.5 0.5v5.7c0.5 0.2 0.8 0.7 0.8 1.3 0 0.7-0.5 1.3-1.3 1.3-0.7 0-1.3-0.6-1.3-1.3z"/></svg>