<svg version="1.2" xmlns="http://www.w3.org/2000/svg" viewBox="0 0 16 16" width="16" height="16"><style>.a{fill:#fff}</style><path fill-rule="evenodd" class="a" d="m7.5 2.2c0.3-0.2 0.7-0.2 1 0 0.6 0.4 1.4 0.7 2.1 0.7 0.8 0 1.6-0.3 2.2-0.7 0.3-0.2 0.7-0.2 1 0.1 0.4 0.3 0.9 0.5 1.4 0.6 0.5 0.1 0.8 0.6 0.7 1-0.1 0.4-0.6 0.7-1.1 0.6-0.6-0.1-1.2-0.4-1.6-0.6-0.8 0.4-1.7 0.6-2.6 0.6-0.8 0-1.6-0.2-2.2-0.5q-0.2-0.1-0.4-0.2-0.2 0.1-0.4 0.2c-0.6 0.3-1.4 0.5-2.2 0.5-0.9 0-1.8-0.2-2.6-0.6-0.4 0.2-1 0.5-1.6 0.6-0.5 0.1-1-0.2-1.1-0.6-0.1-0.4 0.2-0.9 0.7-1 0.5-0.1 1-0.3 1.4-0.6 0.3-0.3 0.7-0.3 1-0.1 0.6 0.4 1.4 0.7 2.2 0.7 0.7 0 1.5-0.3 2.1-0.7zm-0.5 11.4c-0.5 0.1-0.8 0.3-1.6 0.3-0.9 0-1.8-0.2-2.6-0.6-0.4 0.2-1 0.5-1.6 0.6-0.5 0.1-1-0.2-1.1-0.6-0.1-0.5 0.2-0.9 0.7-1 0.5-0.1 1-0.3 1.4-0.6 0.3-0.3 0.7-0.3 1-0.1 0.6 0.4 1.4 0.7 2.2 0.7 0.7 0 1.1-0.1 1.6-0.4 0.3-0.1 0.1 1.6 0 1.7zm0.6-4.9c-0.6 0.3-1.4 0.5-2.2 0.5-0.9 0-1.8-0.2-2.6-0.6-0.4 0.2-1 0.5-1.6 0.6-0.5 0.1-1-0.2-1.1-0.6-0.1-0.5 0.2-0.9 0.7-1 0.5-0.1 1-0.3 1.4-0.6 0.3-0.3 0.7-0.3 1-0.1 0.6 0.4 1.4 0.7 2.2 0.7 0.7 0 1.5-0.3 2.1-0.7 0.3-0.2 0.7-0.2 1 0 0.6 0.4-0.8 1.8-0.9 1.8z"/><path fill-rule="evenodd" class="a" d="m12.2 16c-2 0-3.7-1.7-3.7-3.9 0-1.8 2.5-5.3 3.2-6.2q0.2-0.2 0.5-0.2h0.1q0.2 0 0.4 0.2c0.7 0.9 3.3 4.4 3.3 6.2 0 2.2-1.7 3.9-3.8 3.9zm-1.8-3.6c0-0.1-0.2-0.3-0.4-0.3-0.1 0-0.3 0.2-0.3 0.3 0 1.3 1 2.3 2.2 2.3 0.2 0 0.3-0.1 0.3-0.3 0-0.2-0.1-0.3-0.3-0.3-0.8 0-1.5-0.8-1.5-1.7z"/></svg>