<svg version="1.2" xmlns="http://www.w3.org/2000/svg" viewBox="0 0 16 16" width="16" height="16"><style>.a{fill:#fff}</style><path fill-rule="evenodd" class="a" d="m10 0h1c1.7 0 3 1.3 3 3 0 1.7-1.3 3-3 3h-10c-0.6 0-1-0.4-1-1 0-0.6 0.4-1 1-1h10c0.6 0 1-0.4 1-1 0-0.6-0.4-1-1-1h-1c-0.6 0-1-0.4-1-1 0-0.6 0.4-1 1-1zm2 11h1c0.6 0 1-0.4 1-1 0-0.6-0.4-1-1-1h-12c-0.6 0-1-0.4-1-1 0-0.6 0.4-1 1-1h12c1.7 0 3 1.3 3 3 0 1.7-1.3 3-3 3h-1c-0.6 0-1-0.4-1-1 0-0.6 0.4-1 1-1zm-9 4c0-0.6 0.4-1 1-1h1c0.6 0 1-0.4 1-1 0-0.6-0.4-1-1-1h-4c-0.6 0-1-0.4-1-1 0-0.6 0.4-1 1-1h4c1.7 0 3 1.3 3 3 0 1.7-1.3 3-3 3h-1c-0.6 0-1-0.4-1-1z"/></svg>