<svg version="1.2" xmlns="http://www.w3.org/2000/svg" viewBox="0 0 32 32" width="32" height="32"><style>.a{fill:none;stroke:#fff;stroke-miterlimit:100}.b{fill:#fff}</style><path fill-rule="evenodd" class="a" d="m9 23l-3.8 4.9"/><path fill-rule="evenodd" class="a" d="m16 23l-3.8 4.9"/><path fill-rule="evenodd" class="a" d="m23 23l-3.8 4.9"/><path class="b" d="m12.4 19.8c-4.1 0-7.4-3.3-7.4-7.4 0-4.1 3.3-7.4 7.4-7.4 4.1 0 7.4 3.3 7.4 7.4 0 4.1-3.3 7.4-7.4 7.4zm9.9 0c-2.6 0-4.8-2.2-4.8-4.8 0-2.7 2.2-4.8 4.8-4.8 2.7 0 4.8 2.1 4.8 4.8 0 2.6-2.1 4.8-4.8 4.8zm-0.3-3.7v3.8h-8.9v-3.8z"/></svg>