<svg version="1.2" xmlns="http://www.w3.org/2000/svg" viewBox="0 0 32 32" width="32" height="32"><style>.a{fill:#ffcf00}</style>
<path class="a" d="m12.2 6.9c-5.4 1.2-8.7 6.6-7.5 11.9 1.2 5.3 6.5 8.7 11.8 7.5 2.7-0.6 4.8-2.2 6.2-4.3 0.1-0.3 0.1-0.6-0.1-0.8-0.2-0.3-0.5-0.4-0.8-0.2q-0.6 0.2-1.3 0.4c-4.2 0.9-8.3-1.7-9.3-5.9-0.6-2.8 0.4-5.7 2.4-7.5 0.2-0.2 0.3-0.5 0.1-0.8-0.1-0.3-0.4-0.4-0.7-0.4q-0.4 0.1-0.8 0.1z"/>
<path fill-rule="evenodd" class="a" d="m22 8l-1 5-1-5 1-5z"/>
<path fill-rule="evenodd" class="a" d="m21 9l-5-1 5-1 5 1z"/>
<path fill-rule="evenodd" class="a" d="m26.8 17l-0.8 4-0.8-4 0.8-4z"/>
<path fill-rule="evenodd" class="a" d="m26 17.8l-4-0.8 4-0.8 4 0.8z"/></svg>