<svg version="1.2" xmlns="http://www.w3.org/2000/svg" viewBox="0 0 32 32" width="32" height="32"><style>.a{opacity:.5;fill:#fff}.b{fill:#fff}</style><path class="a" d="m15.8 18.7c-3.7 0-6.8-3.1-6.8-6.9 0-3.7 3.1-6.8 6.8-6.8 3.8 0 6.9 3.1 6.9 6.8 0 3.8-3.1 6.9-6.9 6.9zm9.2 0c-2.4 0-4.4-2-4.4-4.5 0-2.4 2-4.4 4.4-4.4 2.5 0 4.5 2 4.5 4.4 0 2.5-2 4.5-4.5 4.5zm-0.3-3.5v3.6h-8.2v-3.6z"/><path class="b" d="m10.9 28.3c-4.6 0-8.2-3.6-8.2-8.1 0-4.5 3.6-8.2 8.2-8.2 4.5 0 8.1 3.7 8.1 8.2 0 4.5-3.6 8.1-8.1 8.1zm11 0c-2.9 0-5.3-2.3-5.3-5.3 0-2.9 2.4-5.3 5.3-5.3 2.9 0 5.3 2.4 5.3 5.3 0 3-2.4 5.3-5.3 5.3zm-0.4-4v4.2h-9.8v-4.2z"/></svg>