<svg version="1.2" xmlns="http://www.w3.org/2000/svg" viewBox="0 0 32 32" width="32" height="32"><style>.a{fill:#ffcf00}.b{fill:#fff}</style><path fill-rule="evenodd" class="a" d="m18.9 6.5c3.6 0 6.6 2.9 6.6 6.5 0 3.6-3 6.6-6.6 6.6-3.6 0-6.5-3-6.5-6.6 0-3.6 2.9-6.5 6.5-6.5z"/><path class="a" d="m27.4 11.1l3.6 1.7-3.6 1.8zm-17.3 3.6l-3.6-1.8 3.6-1.8zm10.4 6.9l-1.8 3.6-1.7-3.6zm-3.6-17.3l1.8-3.6 1.8 3.6z"/><path class="a" d="m26.1 17.7l1.3 3.8-3.8-1.3zm-14.8-9.7l-1.2-3.8 3.8 1.3zm2.5 12.2l-3.8 1.3 1.3-3.8zm9.7-14.8l3.8-1.2-1.3 3.8z"/><path class="b" d="m10.9 28.3c-4.6 0-8.2-3.6-8.2-8.1 0-4.5 3.6-8.2 8.2-8.2 4.5 0 8.1 3.7 8.1 8.2 0 4.5-3.6 8.1-8.1 8.1zm11 0c-2.9 0-5.3-2.3-5.3-5.3 0-2.9 2.4-5.3 5.3-5.3 2.9 0 5.3 2.4 5.3 5.3 0 3-2.4 5.3-5.3 5.3zm-0.4-4v4.2h-9.8v-4.2z"/></svg>