<svg version="1.2" xmlns="http://www.w3.org/2000/svg" viewBox="0 0 32 32" width="32" height="32"><style>.a{fill:#ffcf00}.b{fill:#fff}</style><path class="a" d="m19.7 4c-4.7 1-7.6 5.7-6.5 10.4 1 4.6 5.7 7.5 10.3 6.5 2.3-0.5 4.2-1.9 5.4-3.7 0.1-0.3 0.1-0.6-0.1-0.8-0.2-0.2-0.4-0.2-0.7-0.1q-0.5 0.2-1.1 0.3c-3.7 0.8-7.3-1.5-8.1-5.1-0.6-2.5 0.3-5 2-6.6 0.2-0.2 0.3-0.4 0.2-0.7-0.1-0.2-0.4-0.4-0.7-0.3q-0.3 0-0.7 0.1z"/><path fill-rule="evenodd" class="a" d="m7.8 7l-0.8 4-0.8-4 0.8-4z"/><path fill-rule="evenodd" class="a" d="m7 7.8l-4-0.8 4-0.8 4 0.8z"/><path class="b" d="m10.9 28.3c-4.6 0-8.2-3.6-8.2-8.1 0-4.5 3.6-8.2 8.2-8.2 4.5 0 8.1 3.7 8.1 8.2 0 4.5-3.6 8.1-8.1 8.1zm11 0c-2.9 0-5.3-2.3-5.3-5.3 0-2.9 2.4-5.3 5.3-5.3 2.9 0 5.3 2.4 5.3 5.3 0 3-2.4 5.3-5.3 5.3zm-0.4-4v4.2h-9.8v-4.2z"/></svg>