<svg version="1.2" xmlns="http://www.w3.org/2000/svg" viewBox="0 0 32 32" width="32" height="32"><style>.a{fill:#fff}</style><path class="a" d="m16.1 5.1c0.6 0 1.1 0.5 1.1 1.1v2l1.1-1c0.4-0.4 1.1-0.4 1.5 0 0.4 0.4 0.4 1.1 0 1.5l-2.6 2.6v3.4l3-1.7 0.9-3.5c0.2-0.6 0.8-0.9 1.3-0.7 0.6 0.1 1 0.7 0.8 1.3l-0.4 1.4 1.7-1c0.5-0.3 1.2-0.1 1.5 0.4 0.3 0.5 0.1 1.2-0.4 1.5l-1.7 0.9 1.4 0.4c0.6 0.2 0.9 0.8 0.8 1.3-0.2 0.6-0.8 0.9-1.3 0.8l-3.5-0.9-3 1.7 3 1.7 3.5-1c0.5-0.1 1.1 0.2 1.3 0.8 0.1 0.6-0.2 1.2-0.8 1.3l-1.4 0.4 1.7 1c0.5 0.3 0.7 0.9 0.4 1.4-0.3 0.5-1 0.7-1.5 0.4l-1.7-0.9 0.4 1.4c0.2 0.6-0.2 1.1-0.8 1.3-0.5 0.1-1.1-0.2-1.3-0.8l-0.9-3.5-3-1.7v3.5l2.6 2.5c0.4 0.4 0.4 1.1 0 1.5-0.4 0.4-1.1 0.5-1.5 0l-1.1-1v2.1c0 0.6-0.5 1-1 1-0.6 0-1.1-0.4-1.1-1v-2.1l-1.1 1c-0.4 0.4-1.1 0.4-1.5 0-0.4-0.4-0.4-1.1 0-1.5l2.6-2.5v-3.5l-3 1.7-0.9 3.5c-0.2 0.6-0.8 0.9-1.3 0.8-0.6-0.2-1-0.8-0.8-1.3l0.4-1.4-1.7 0.9c-0.5 0.3-1.2 0.1-1.5-0.4-0.3-0.5-0.1-1.1 0.4-1.4l1.7-1-1.4-0.4c-0.6-0.1-0.9-0.7-0.8-1.3 0.2-0.6 0.8-0.9 1.3-0.7l3.5 0.9 3-1.7-3-1.7-3.5 0.9c-0.5 0.1-1.1-0.2-1.3-0.8-0.1-0.5 0.2-1.1 0.8-1.3l1.4-0.4-1.7-0.9c-0.5-0.3-0.7-1-0.4-1.5 0.3-0.5 1-0.7 1.5-0.4l1.7 1-0.4-1.4c-0.2-0.6 0.2-1.2 0.7-1.4 0.6-0.1 1.2 0.2 1.4 0.8l0.9 3.5 3 1.7v-3.4l-2.6-2.6c-0.4-0.4-0.4-1.1 0-1.5 0.4-0.4 1.1-0.4 1.5 0l1.1 1v-2c0-0.6 0.4-1.1 1-1.1z"/></svg>