<svg version="1.2" xmlns="http://www.w3.org/2000/svg" viewBox="0 0 32 32" width="32" height="32"><style>.a{fill:#fff}</style><path class="a" d="m12.4 18.8c-4.1 0-7.4-3.3-7.4-7.4 0-4.1 3.3-7.4 7.4-7.4 4.1 0 7.4 3.3 7.4 7.4 0 4.1-3.3 7.4-7.4 7.4zm9.9 0c-2.6 0-4.8-2.2-4.8-4.8 0-2.7 2.2-4.8 4.8-4.8 2.7 0 4.8 2.1 4.8 4.8 0 2.6-2.1 4.8-4.8 4.8zm-0.3-3.7v3.8h-8.9v-3.8z"/><path class="a" d="m11.6 20.5c0.1 0 0.2 0.2 0.2 0.3v0.5l0.3-0.3c0.1-0.1 0.2-0.1 0.3 0 0.1 0.1 0.1 0.3 0 0.4l-0.6 0.6v0.8l0.7-0.4 0.3-0.8c0-0.1 0.1-0.2 0.3-0.2 0.1 0.1 0.2 0.2 0.2 0.3l-0.1 0.4 0.4-0.3c0.1 0 0.2 0 0.3 0.1 0.1 0.2 0 0.3-0.1 0.4l-0.4 0.2 0.4 0.1c0.1 0 0.2 0.2 0.1 0.3 0 0.2-0.1 0.2-0.3 0.2l-0.8-0.2-0.7 0.4 0.7 0.4 0.8-0.2c0.2-0.1 0.3 0 0.3 0.2 0.1 0.1 0 0.2-0.1 0.3l-0.4 0.1 0.4 0.2c0.1 0.1 0.2 0.2 0.1 0.3-0.1 0.2-0.2 0.2-0.3 0.1l-0.4-0.2 0.1 0.3c0 0.2-0.1 0.3-0.2 0.4-0.2 0-0.3-0.1-0.3-0.2l-0.3-0.9-0.7-0.4v0.9l0.6 0.6c0.1 0.1 0.1 0.2 0 0.3-0.1 0.1-0.2 0.1-0.3 0l-0.3-0.2v0.5c0 0.1-0.1 0.2-0.2 0.2-0.2 0-0.3-0.1-0.3-0.2v-0.5l-0.2 0.2c-0.1 0.1-0.3 0.1-0.4 0-0.1-0.1-0.1-0.2 0-0.3l0.6-0.6v-0.9l-0.7 0.4-0.2 0.9c-0.1 0.1-0.2 0.2-0.3 0.2-0.2-0.1-0.3-0.2-0.2-0.4l0.1-0.3-0.4 0.2c-0.2 0.1-0.3 0.1-0.4-0.1-0.1-0.1 0-0.2 0.1-0.3l0.4-0.2-0.3-0.1c-0.2-0.1-0.3-0.2-0.2-0.3 0-0.2 0.2-0.3 0.3-0.2l0.8 0.2 0.7-0.4-0.7-0.4-0.8 0.2c-0.1 0-0.3 0-0.3-0.2-0.1-0.1 0-0.3 0.2-0.3l0.3-0.1-0.4-0.2c-0.1-0.1-0.2-0.2-0.1-0.4 0.1-0.1 0.2-0.1 0.4-0.1l0.4 0.3-0.1-0.4c-0.1-0.1 0-0.3 0.2-0.3 0.1 0 0.2 0.1 0.3 0.2l0.2 0.8 0.7 0.4v-0.8l-0.6-0.6c-0.1-0.1-0.1-0.3 0-0.4 0.1-0.1 0.3-0.1 0.4 0l0.2 0.3v-0.5c0-0.1 0.1-0.3 0.3-0.3z"/><path class="a" d="m20.5 20.5c0.2 0 0.3 0.2 0.3 0.3v0.5l0.2-0.3c0.1-0.1 0.3-0.1 0.4 0 0.1 0.1 0.1 0.3 0 0.4l-0.6 0.6v0.8l0.7-0.4 0.2-0.8c0-0.1 0.2-0.2 0.3-0.2 0.2 0.1 0.2 0.2 0.2 0.3l-0.1 0.4 0.4-0.3c0.1 0 0.3 0 0.4 0.1 0 0.2 0 0.3-0.1 0.4l-0.4 0.2 0.3 0.1c0.2 0 0.2 0.2 0.2 0.3 0 0.2-0.2 0.2-0.3 0.2l-0.9-0.2-0.7 0.4 0.7 0.4 0.9-0.2c0.1-0.1 0.3 0 0.3 0.2 0 0.1 0 0.2-0.2 0.3l-0.3 0.1 0.4 0.2c0.1 0.1 0.1 0.2 0.1 0.3-0.1 0.2-0.3 0.2-0.4 0.1l-0.4-0.2 0.1 0.3c0 0.2 0 0.3-0.2 0.4-0.1 0-0.3-0.1-0.3-0.2l-0.2-0.9-0.7-0.4v0.9l0.6 0.6c0.1 0.1 0.1 0.2 0 0.3-0.1 0.1-0.3 0.1-0.4 0l-0.2-0.2v0.5c0 0.1-0.1 0.2-0.3 0.2-0.1 0-0.2-0.1-0.2-0.2v-0.5l-0.3 0.2c-0.1 0.1-0.3 0.1-0.4 0-0.1-0.1-0.1-0.2 0-0.3l0.7-0.6v-0.9l-0.8 0.4-0.2 0.9c0 0.1-0.2 0.2-0.3 0.2-0.1-0.1-0.2-0.2-0.2-0.4l0.1-0.3-0.4 0.2c-0.1 0.1-0.3 0.1-0.3-0.1-0.1-0.1-0.1-0.2 0.1-0.3l0.4-0.2-0.4-0.1c-0.1-0.1-0.2-0.2-0.2-0.3 0.1-0.2 0.2-0.3 0.4-0.2l0.8 0.2 0.7-0.4-0.7-0.4-0.8 0.2c-0.2 0-0.3 0-0.4-0.2 0-0.1 0.1-0.3 0.2-0.3l0.4-0.1-0.4-0.2c-0.2-0.1-0.2-0.2-0.1-0.4 0-0.1 0.2-0.1 0.3-0.1l0.4 0.3-0.1-0.4c0-0.1 0.1-0.3 0.2-0.3 0.1 0 0.3 0.1 0.3 0.2l0.2 0.8 0.8 0.4v-0.8l-0.7-0.6c-0.1-0.1-0.1-0.3 0-0.4 0.1-0.1 0.3-0.1 0.4 0l0.3 0.3v-0.5c0-0.1 0.1-0.3 0.2-0.3z"/></svg>