<svg version="1.2" xmlns="http://www.w3.org/2000/svg" viewBox="0 0 32 32" width="32" height="32"><style>.a{fill:#fff}</style><path class="a" d="m12.4 19.8c-4.1 0-7.4-3.3-7.4-7.4 0-4.1 3.3-7.4 7.4-7.4 4.1 0 7.4 3.3 7.4 7.4 0 4.1-3.3 7.4-7.4 7.4zm9.9 0c-2.6 0-4.8-2.2-4.8-4.8 0-2.7 2.2-4.8 4.8-4.8 2.7 0 4.8 2.1 4.8 4.8 0 2.6-2.1 4.8-4.8 4.8zm-0.3-3.7v3.8h-8.9v-3.8z"/><path class="a" d="m13 25l0.4-3.6c0.1-0.2 0.3-0.4 0.5-0.4h2.7c0.2 0 0.4 0.2 0.4 0.4q0 0.1 0 0.2l-0.8 1.9h2.2c0.3 0 0.6 0.3 0.6 0.6q0 0.2-0.1 0.3l-3 4.4q-0.2 0.2-0.4 0.2h-0.1c-0.2 0-0.4-0.2-0.4-0.4q0-0.1 0-0.1l0.7-3h-2.2c-0.3 0-0.5-0.2-0.5-0.5z"/></svg>